<svg xmlns="http://www.w3.org/2000/svg" viewBox="0 0 216.88 110.14"><defs><style>.cls-1{fill:#fff;}</style></defs><g id="Layer_2" data-name="Layer 2"><g id="Layer_1-2" data-name="Layer 1"><circle class="cls-1" cx="196.5" cy="54.46" r="4.39"/><circle class="cls-1" cx="208.44" cy="38.32" r="8.44"/><circle class="cls-1" cx="195.34" cy="13.1" r="13.1"/><path class="cls-1" d="M10.88,98.08v11a1,1,0,0,1-1,1H1a1,1,0,0,1-1-1V65.52a1,1,0,0,1,1-1H19.34a20.85,20.85,0,0,1,8.8,1.57A9.54,9.54,0,0,1,33,71.19a24.66,24.66,0,0,1,1.5,9.46q0,8.53-3.36,12.48T20.44,97.07H11.88A1,1,0,0,0,10.88,98.08Zm0-10.12a1,1,0,0,0,1,1h7.17a5.31,5.31,0,0,0,3.11-.66A2.94,2.94,0,0,0,23,85.9V76.56a2.94,2.94,0,0,0-.84-2.41,5.31,5.31,0,0,0-3.11-.66H11.88a1,1,0,0,0-1,1Z"/><path class="cls-1" d="M51.68,92.38v7.77a1,1,0,0,0,1,1H69.37a1,1,0,0,1,1,1v7a1,1,0,0,1-1,1H41.81a1,1,0,0,1-1-1V65.52a1,1,0,0,1,1-1H69.27a1,1,0,0,1,1,1.16l-1.08,7a1,1,0,0,1-1,.85H52.69a1,1,0,0,0-1,1v7.77a1,1,0,0,0,1,1h14a1,1,0,0,1,1,1v6.09a1,1,0,0,1-1,1h-14A1,1,0,0,0,51.68,92.38Z"/><path class="cls-1" d="M74.52,108.86,86.59,65.25a1,1,0,0,1,1-.74h15.19a1,1,0,0,1,1,.74l12.07,43.61a1,1,0,0,1-1,1.28H106a1,1,0,0,1-1-.74L95.48,74.81h-.65L85.25,109.4a1,1,0,0,1-1,.74H75.49A1,1,0,0,1,74.52,108.86Zm7.24-8.49V94.28a1,1,0,0,1,1-1h24.85a1,1,0,0,1,1,1v6.09a1,1,0,0,1-1,1H82.77A1,1,0,0,1,81.76,100.37Z"/><path class="cls-1" d="M132.86,96.47v12.66a1,1,0,0,1-1,1H123a1,1,0,0,1-1-1V65.52a1,1,0,0,1,1-1h18.7a20.91,20.91,0,0,1,8.8,1.57,9.58,9.58,0,0,1,4.82,5.11,24.88,24.88,0,0,1,1.49,9.46q0,7.72-3.32,11.27c-2.21,2.37-5.78,3.54-10.69,3.54h-8.93A1,1,0,0,0,132.86,96.47Zm0-10.19a1,1,0,0,0,1,1h7.54a5.25,5.25,0,0,0,3.1-.66,2.91,2.91,0,0,0,.84-2.41V76.56a2.91,2.91,0,0,0-.84-2.41,5.25,5.25,0,0,0-3.1-.66h-7.54a1,1,0,0,0-1,1ZM149,89.56l9.12,19.14a1,1,0,0,1-.91,1.44h-9.52a1,1,0,0,1-.91-.58l-7.39-15.65a1,1,0,0,1,.49-1.35l7.81-3.48A1,1,0,0,1,149,89.56Z"/><path class="cls-1" d="M165.93,109.13V65.52a1,1,0,0,1,1-1h8.87a1,1,0,0,1,1,1v34.63a1,1,0,0,0,1,1H191.2a1,1,0,0,1,1,1v7a1,1,0,0,1-1,1H166.93A1,1,0,0,1,165.93,109.13Z"/></g></g></svg>